<?xml version="1.0" encoding="utf-8"?>

<svg version="1.1" id="Capa_1" xmlns="http://www.w3.org/2000/svg" xmlns:xlink="http://www.w3.org/1999/xlink" x="0px" y="0px"
     viewBox="0 0 100 100" enable-background="new 0 0 100 100" xml:space="preserve">
<g>
	<g>
		<g>
			<path fill="#00CE7C" d="M83.51,24.85c-1.21-1.51-2.3-3.14-3.66-4.5c-1.36-1.36-2.98-2.45-4.47-3.64
				c1.19-9.05-0.92-15.08-5.83-16.74c-3.13,1.14-3.54,2.9-1.33,5.49c0.36,0.42,0.71,0.84,0.98,1.32c1.54,2.74,2.26,5.54,0.59,8.66
				c-9.3-0.56-15.86,3.71-20.09,11.98c-0.94-0.3-1.76-0.51-2.55-0.82c-8.05-3.19-16.1-6.39-24.15-9.59
				c-4.37-1.74-9.39-1.38-13.28,1.27c-4.31,2.94-7.06,7.02-8.73,11.9c-1.16,3.38-0.94,6.67,0.36,9.93
				c2.78,6.95,8.71,9.94,14.63,10.03c3.75,0.06,7.51-1.17,11.27-1.78c3.85-0.62,7.71-1.11,11.6-0.23c1.01,0.23,1.88,0.6,2.4,1.47
				c0.42,0.68,0.38,1.56,0.03,2.28c-0.45,0.93-0.95,1.94-1.44,2.96c-0.59,1.23-1.39,2.43-1.68,3.73c-0.21,0.92,0.02,2.15,0.52,2.96
				c0.67,1.09,1.94,1.14,3.11,0.61c1.18-0.54,2.33-1.12,3.5-1.68c1.03-0.49,2.06-0.98,3.01-1.44c0.97-0.46,2.17-0.28,2.89,0.52
				c0.54,0.6,0.8,1.34,0.98,2.18c0.98,4.65-0.08,9.18-0.64,13.75c-0.48,3.89-1.96,7.63-1.18,11.72c1.22,6.38,5.84,11.46,12.17,12.57
				c2.28,0.4,4.9,0.12,5.3,0.05c5.11-0.94,9.29-3.52,12.67-7.35c3.97-4.51,4.97-9.6,2.67-15.29c-3.14-7.76-6.21-15.55-9.29-23.34
				c-0.42-1.05-0.73-2.14-1.13-3.33c8.48-4.25,12.59-10.99,12.08-20.26c4-1.5,7.19-0.51,10.11,1.93c2.47,2.06,4.24,1.53,5.29-1.54
				C98.38,25.69,92.66,23.72,83.51,24.85z M40.41,68.75c-1.61,0.81-3.15,1.77-4.77,2.55c-2.72,1.29-4.37,1.05-6.09-0.75
				c-1.65-1.73-1.82-3.35-0.56-5.95c0.47-0.97,1.06-1.89,1.55-2.85c0.43-0.86,0.84-1.73,1.23-2.56c0.54-1.14,0.18-2.57-0.92-3.19
				c-0.88-0.5-1.93-0.53-2.94-0.52c-5.33,0.08-10.67,0.28-16,0.45c-0.21,0.01-0.41,0.12-0.93,0.28c-1.45,8.11,0.34,15.57,5.15,22.51
				c-1.27,2.25-2.46,4.36-3.59,6.36c-0.38,0.68-0.35,1.53,0.11,2.16c0.79,1.08,1.57,1.1,2.97,0.33c2.01-1.1,3.98-2.27,5.98-3.42
				c6.94,4.89,14.38,6.65,22.6,5.15c0.09-0.66,0.17-1,0.18-1.36c0.15-3.97,0.33-7.93,0.43-11.9c0.04-1.73,0.1-3.49-0.19-5.18
				C44.14,67.96,42.98,67.45,40.41,68.75z"/>
		</g>
	</g>
</g>
</svg>
