<?xml version="1.0" encoding="UTF-8"?>
<svg id="Capa_2" data-name="Capa 2" xmlns="http://www.w3.org/2000/svg" viewBox="0 0 611.09 80">
  <defs>
    <style>
      .cls-1 {
        fill: #2d2a26;
      }

      .cls-2 {
        fill: #7473c0;
      }
    </style>
  </defs>
  <g id="Capa_1-2" data-name="Capa 1">
    <g>
      <g>
        <g>
          <path class="cls-1" d="M258.61,23.67c-5.69,0-10.54,2.06-14.27,6.02-3.41-3.88-8.18-6.02-13.67-6.02-4.13,0-7.32,1.12-9.81,2.73v-1.79h-10.91v47.09h10.91v-26.61c0-6.07,4.07-10.83,9.26-10.83,7.37,0,8.16,6.92,8.16,9.89v27.55h10.91v-26.84c0-7.32,4.57-10.6,9.11-10.6,6.88,0,8.32,5.51,8.32,10.13v27.32h10.91v-27.79c0-12.11-7.6-20.25-18.92-20.25Z"/>
          <path class="cls-1" d="M197.02,56.82c-3.33,3.57-6.77,5.16-11.15,5.16s-9.61-2.75-11.48-8.71h32.1l.39-3.1c.11-.85,.11-1.26,.11-2.01,0-14.19-9.21-24.49-21.9-24.49s-22.53,10.72-22.53,24.41v.16c0,13.69,10.17,24.41,23.15,24.41,9.84,0,15.4-4.63,19.15-8.66l2.46-2.65-7.96-7.02-2.34,2.51Zm-12.1-22.55c5.81,0,8.94,3.92,10.21,8.48h-20.69c1.65-5.08,5.67-8.48,10.49-8.48Z"/>
          <path class="cls-1" d="M140.66,23.67c-5.69,0-10.54,2.06-14.27,6.02-3.41-3.88-8.18-6.02-13.67-6.02-4.13,0-7.32,1.12-9.81,2.73v-1.79h-10.91v47.09h10.91v-26.61c0-6.07,4.07-10.83,9.26-10.83,7.37,0,8.16,6.92,8.16,9.89v27.55h10.91v-26.84c0-7.32,4.57-10.6,9.11-10.6,6.88,0,8.32,5.51,8.32,10.13v27.32h10.91v-27.79c0-12.11-7.6-20.25-18.92-20.25Z"/>
          <path class="cls-1" d="M377.58,23.99h-20.85c-.39-.01-.78-.01-1.17,0h-.74v.03c-4.5,.29-8.73,2.06-12.24,4.99v-4.39h-10.91v47.09h10.91v-19.94c0-11.39,6.94-16.48,13.81-16.48h.38s18.14,0,20.58,0c6.52,0,8.71,2.44,9.39,5.34-2.61-.46-5.65-.78-9.47-.78-12.78,0-21.04,6.5-21.04,16.56v.16c0,10.45,9.79,16.09,18.99,16.09,4.96,0,8.83-1.36,11.77-3.14v2.2h10.83v-28.49c0-5.76-1.72-10.41-5.12-13.8-3.55-3.55-8.79-5.43-15.13-5.43Zm9.5,29.2c0,5.71-5.99,8.79-11.62,8.79-3.89,0-8.08-1.77-8.08-5.65v-.16c0-5.24,6.75-5.81,9.65-5.81,3.98,0,7.33,.49,10.05,1.07v1.76Z"/>
          <path class="cls-1" d="M422.62,23.67c-4.14,0-7.82,1.03-10.91,3.02v-2.07h-10.91v47.09h10.91v-26.69c0-6.23,4.36-10.75,10.36-10.75,7.99,0,9.18,6.34,9.18,10.13v27.32h10.91v-28.02c0-11.97-7.85-20.02-19.54-20.02Z"/>
          <path class="cls-1" d="M481.09,7.35V27.86c-3.76-2.76-8.14-4.19-12.95-4.19-11.3,0-23,9.16-23,24.49v.16c0,15.23,11.69,24.33,23,24.33,4.84,0,9.17-1.45,12.95-4.33v3.39h10.91V7.35h-10.91Zm.24,40.89c0,8.44-6.64,13.66-12.79,13.66s-12.17-4.72-12.17-13.74v-.16c0-8.12,4.89-13.58,12.17-13.58,6.15,0,12.79,5.22,12.79,13.66v.16Z"/>
          <path class="cls-1" d="M304.67,23.67c-13.56,0-24.17,10.76-24.17,24.49v.16c0,13.64,10.55,24.33,24.02,24.33s24.17-10.76,24.17-24.49v-.16c0-13.64-10.55-24.33-24.02-24.33Zm12.79,24.65c0,7.79-5.5,13.66-12.79,13.66s-12.95-6.07-12.95-13.81v-.16c0-7.79,5.5-13.66,12.79-13.66s12.95,6.07,12.95,13.81v.16Z"/>
        </g>
        <path class="cls-2" d="M66.61,19.9c-.96-1.21-1.84-2.51-2.93-3.6-1.09-1.09-2.39-1.96-3.57-2.91,.95-7.24-.73-12.06-4.66-13.39-2.5,.91-2.84,2.32-1.06,4.39,.29,.33,.57,.68,.78,1.06,1.24,2.19,1.81,4.43,.47,6.93-7.44-.45-12.68,2.97-16.07,9.58-.75-.24-1.41-.41-2.04-.65-6.44-2.55-12.88-5.11-19.32-7.67-3.5-1.39-7.51-1.11-10.62,1.02-3.44,2.35-5.64,5.62-6.99,9.52-.93,2.7-.75,5.34,.29,7.94,2.22,5.56,6.97,7.95,11.71,8.03,3,.05,6.01-.94,9.02-1.42,3.08-.5,6.17-.89,9.28-.19,.81,.18,1.5,.48,1.92,1.18,.33,.55,.3,1.24,.02,1.82-.36,.75-.76,1.56-1.15,2.37-.47,.99-1.11,1.94-1.34,2.98-.16,.73,.02,1.72,.42,2.36,.54,.87,1.55,.92,2.49,.49,.94-.43,1.87-.9,2.8-1.34,.82-.39,1.65-.79,2.41-1.15s1.73-.23,2.31,.41c.44,.48,.64,1.07,.78,1.75,.78,3.72-.07,7.34-.52,11-.38,3.11-1.57,6.11-.94,9.38,.98,5.11,4.67,9.17,9.73,10.06,1.83,.32,3.92,.1,4.24,.04,4.08-.75,7.43-2.82,10.14-5.88,3.18-3.6,3.98-7.68,2.14-12.23-2.51-6.21-4.96-12.44-7.43-18.67-.33-.84-.59-1.71-.91-2.66,6.78-3.4,10.07-8.79,9.66-16.21,3.2-1.2,5.75-.41,8.09,1.54,1.97,1.65,3.39,1.22,4.23-1.24-1.49-3.95-6.07-5.53-13.39-4.62ZM32.13,55.02c-1.29,.65-2.52,1.42-3.82,2.04-2.18,1.04-3.5,.84-4.87-.6-1.32-1.39-1.46-2.68-.45-4.76,.38-.78,.85-1.51,1.24-2.28,.34-.69,.67-1.38,.99-2.05,.43-.91,.15-2.05-.73-2.55-.71-.4-1.54-.43-2.35-.42-4.27,.06-8.53,.22-12.8,.36-.16,0-.33,.09-.75,.22-1.16,6.49,.27,12.45,4.12,18-1.02,1.8-1.97,3.49-2.88,5.09-.31,.54-.28,1.22,.09,1.73,.63,.87,1.25,.88,2.38,.26,1.61-.88,3.18-1.82,4.79-2.74,5.55,3.91,11.51,5.32,18.08,4.12,.07-.52,.14-.8,.15-1.09,.12-3.17,.26-6.34,.34-9.52,.03-1.38,.08-2.79-.15-4.14-.39-2.31-1.31-2.72-3.38-1.68Z"/>
      </g>
      <g>
        <path class="cls-1" d="M525.32,46.47c-.21-1.73-1.03-3.07-2.49-4.02-1.45-.95-3.24-1.43-5.35-1.43-1.55,0-2.9,.25-4.05,.75s-2.05,1.19-2.69,2.06c-.64,.88-.96,1.87-.96,2.98,0,.93,.22,1.73,.67,2.4,.45,.66,1.03,1.22,1.73,1.65,.71,.44,1.44,.8,2.22,1.07,.77,.28,1.48,.5,2.13,.67l3.55,.95c.91,.24,1.92,.57,3.04,.99s2.19,.99,3.22,1.71,1.88,1.65,2.55,2.77c.67,1.12,1.01,2.51,1.01,4.14,0,1.89-.49,3.59-1.47,5.11-.98,1.52-2.42,2.73-4.3,3.63s-4.16,1.35-6.84,1.35c-2.5,0-4.66-.4-6.49-1.21-1.82-.81-3.26-1.93-4.3-3.38-1.04-1.44-1.63-3.12-1.76-5.03h4.36c.11,1.32,.56,2.41,1.34,3.26,.78,.86,1.77,1.49,2.97,1.91,1.2,.42,2.49,.62,3.88,.62,1.61,0,3.06-.26,4.35-.79s2.3-1.27,3.05-2.22,1.12-2.06,1.12-3.33c0-1.16-.32-2.1-.97-2.83-.65-.73-1.5-1.32-2.56-1.77-1.06-.45-2.2-.85-3.43-1.19l-4.29-1.23c-2.73-.78-4.89-1.9-6.48-3.36-1.59-1.45-2.39-3.36-2.39-5.71,0-1.95,.53-3.66,1.59-5.12,1.06-1.46,2.49-2.6,4.3-3.41,1.8-.81,3.82-1.22,6.04-1.22s4.25,.4,6,1.2,3.14,1.9,4.17,3.28,1.57,2.96,1.63,4.72h-4.09Z"/>
        <path class="cls-1" d="M547.68,46.47v3.41h-13.57v-3.41h13.57Zm-9.61-6.27h4.02v24.95c0,1.14,.17,1.99,.5,2.55,.33,.56,.77,.94,1.29,1.12s1.09,.28,1.68,.28c.44,0,.81-.03,1.09-.08,.28-.05,.51-.09,.68-.13l.82,3.61c-.27,.1-.65,.21-1.14,.32-.49,.11-1.11,.16-1.86,.16-1.14,0-2.25-.24-3.33-.73s-1.98-1.23-2.69-2.23-1.07-2.26-1.07-3.78v-26.05Z"/>
        <path class="cls-1" d="M561.45,73.27c-1.66,0-3.17-.32-4.52-.95-1.35-.63-2.43-1.54-3.22-2.74-.79-1.2-1.19-2.65-1.19-4.35,0-1.5,.3-2.72,.89-3.66s1.38-1.67,2.37-2.21c.99-.53,2.08-.93,3.28-1.2s2.41-.48,3.62-.64c1.59-.2,2.88-.36,3.88-.47s1.72-.29,2.18-.55c.46-.26,.69-.72,.69-1.36v-.14c0-1.68-.46-2.99-1.37-3.92-.92-.93-2.3-1.4-4.15-1.4s-3.43,.42-4.52,1.26-1.86,1.74-2.3,2.69l-3.82-1.36c.68-1.59,1.59-2.83,2.74-3.72,1.14-.89,2.39-1.52,3.75-1.88,1.36-.36,2.7-.54,4.01-.54,.84,0,1.81,.1,2.91,.3,1.1,.2,2.16,.61,3.19,1.22,1.03,.61,1.88,1.54,2.57,2.78,.68,1.24,1.02,2.9,1.02,4.98v17.25h-4.02v-3.55h-.2c-.27,.57-.73,1.18-1.36,1.82-.64,.65-1.48,1.2-2.54,1.65-1.06,.45-2.35,.68-3.87,.68Zm.61-3.61c1.59,0,2.93-.31,4.03-.94s1.93-1.43,2.49-2.42,.84-2.03,.84-3.12v-3.68c-.17,.2-.54,.39-1.12,.55s-1.23,.31-1.98,.43c-.74,.12-1.47,.22-2.16,.31-.7,.08-1.26,.16-1.7,.21-1.05,.14-2.02,.36-2.92,.66-.9,.3-1.63,.75-2.18,1.35-.55,.6-.83,1.41-.83,2.43,0,1.4,.52,2.45,1.56,3.16,1.04,.71,2.36,1.07,3.96,1.07Z"/>
        <path class="cls-1" d="M592.48,46.47v3.41h-14.11v-3.41h14.11Zm-9.89,26.18v-29.8c0-1.5,.35-2.75,1.06-3.75,.7-1,1.62-1.75,2.74-2.25s2.31-.75,3.56-.75c.99,0,1.79,.08,2.42,.24s1.09,.31,1.4,.44l-1.16,3.48c-.21-.07-.49-.15-.84-.26-.36-.1-.83-.15-1.41-.15-1.33,0-2.29,.34-2.87,1.01-.59,.67-.88,1.65-.88,2.95v28.84h-4.02Z"/>
        <path class="cls-1" d="M609.8,46.47v3.41h-14.11v-3.41h14.11Zm-9.89,26.18v-29.8c0-1.5,.35-2.75,1.06-3.75,.7-1,1.62-1.75,2.74-2.25s2.31-.75,3.56-.75c.99,0,1.79,.08,2.42,.24s1.09,.31,1.4,.44l-1.16,3.48c-.21-.07-.49-.15-.84-.26-.36-.1-.83-.15-1.41-.15-1.33,0-2.29,.34-2.87,1.01-.59,.67-.88,1.65-.88,2.95v28.84h-4.02Z"/>
      </g>
    </g>
  </g>
</svg>