<?xml version="1.0" encoding="utf-8"?>
<!-- Generator: Adobe Illustrator 26.5.0, SVG Export Plug-In . SVG Version: 6.00 Build 0)  -->
<svg version="1.1" id="Capa_1" xmlns="http://www.w3.org/2000/svg" xmlns:xlink="http://www.w3.org/1999/xlink" x="0px" y="0px"
	 viewBox="0 0 4428 720" enable-background="new 0 0 4428 720" xml:space="preserve">
<g>
	<g>
		<g>
			<path fill="#2D2A26" d="M2327.49,213.07c-51.21,0-94.88,18.56-128.45,54.19c-30.66-34.9-73.6-54.19-123.04-54.19
				c-37.15,0-65.85,10.06-88.31,24.57v-16.09h-98.19V645.4h98.19V405.92c0-54.67,36.62-97.49,83.36-97.49
				c66.31,0,73.47,62.25,73.47,89.02V645.4h98.19V403.8c0-65.88,41.16-95.37,81.95-95.37c61.89,0,74.88,49.56,74.88,91.13V645.4
				h98.19V395.32C2497.74,286.31,2429.32,213.07,2327.49,213.07z"/>
		</g>
		<g>
			<g>
				<path fill="#2D2A26" d="M1773.17,511.39c-29.96,32.1-60.92,46.41-100.38,46.41c-41.07,0-86.53-24.78-103.32-78.41h288.93
					l3.47-27.86c0.95-7.62,0.95-11.32,0.95-18.06c0-127.71-82.89-220.4-197.09-220.4c-113.68,0-202.74,96.5-202.74,219.7v1.41
					c0,123.2,91.53,219.7,208.39,219.7c88.59,0,138.64-41.67,172.35-77.98l22.18-23.89l-71.65-63.22L1773.17,511.39z
					 M1664.31,308.43c52.27,0,80.46,35.29,91.86,76.3h-186.24C1584.79,339,1620.94,308.43,1664.31,308.43z"/>
			</g>
		</g>
		<g>
			<path fill="#2D2A26" d="M1265.98,213.07c-51.21,0-94.88,18.56-128.45,54.19c-30.66-34.9-73.6-54.19-123.04-54.19
				c-37.15,0-65.84,10.06-88.31,24.57v-16.09H828V645.4h98.19V405.92c0-54.67,36.62-97.49,83.36-97.49
				c66.31,0,73.47,62.25,73.47,89.02V645.4h98.19V403.8c0-65.88,41.16-95.37,81.95-95.37c61.89,0,74.88,49.56,74.88,91.13V645.4
				h98.19V395.32C1436.23,286.31,1367.81,213.07,1265.98,213.07z"/>
		</g>
		<g>
			<g>
				<path fill="#2D2A26" d="M3398.22,215.89h-187.67c-3.53-0.11-7.05-0.1-10.55,0h-6.64l-0.06,0.28
					c-40.42,2.6-78.54,18.56-110.13,44.92v-39.55h-98.19V645.4h98.19V465.96c0-102.48,62.44-148.35,124.33-148.35h3.42
					c0,0,163.29,0.01,185.18,0.01c58.65,0,78.43,21.95,84.48,48.03c-23.45-4.17-50.86-7.06-85.19-7.06
					c-115.01,0-189.32,58.51-189.32,149.05v1.41c0,94.06,88.08,144.82,170.95,144.82c44.63,0,79.46-12.2,105.97-28.25v19.77h97.48
					V388.97c0-51.86-15.49-93.65-46.05-124.21C3502.47,232.79,3455.36,215.89,3398.22,215.89z M3483.7,478.68
					c0,51.39-53.87,79.12-104.55,79.12c-35.04,0-72.76-15.91-72.76-50.86v-1.41c0-47.18,60.77-52.28,86.89-52.28
					c35.81,0,65.93,4.45,90.42,9.63V478.68z"/>
			</g>
		</g>
		<g>
			<path fill="#2D2A26" d="M3803.61,213.07c-37.29,0-70.34,9.23-98.19,27.14v-18.67h-98.19V645.4h98.19V405.21
				c0-56.08,39.22-96.79,93.25-96.79c71.91,0,82.65,57.1,82.65,91.13V645.4h98.19V393.2
				C3979.51,285.46,3908.83,213.07,3803.61,213.07z"/>
		</g>
		<g>
			<g>
				<path fill="#2D2A26" d="M4329.81,66.13v184.63c-33.88-24.85-73.23-37.69-116.56-37.69c-101.74,0-206.98,82.44-206.98,220.4v1.42
					c0,137.07,105.24,218.99,206.98,218.99c43.56,0,82.54-13.07,116.56-39v30.53H4428V66.13H4329.81z M4331.94,434.18
					c0,75.92-59.77,122.92-115.15,122.92c-54.41,0-109.5-42.46-109.5-123.63v-1.41c0-73.1,44-122.22,109.5-122.22
					c55.38,0,115.15,47,115.15,122.92V434.18z"/>
			</g>
		</g>
		<g>
			<g>
				<path fill="#2D2A26" d="M2742.06,213.07c-122,0-217.57,96.81-217.57,220.4v1.42c0,122.8,94.95,218.99,216.16,218.99
					c122,0,217.57-96.82,217.57-220.41v-1.41C2958.23,309.26,2863.28,213.07,2742.06,213.07z M2857.22,434.88
					c0,70.07-49.5,122.92-115.15,122.92c-65.36,0-116.56-54.61-116.56-124.33v-1.41c0-70.07,49.5-122.92,115.15-122.92
					c65.36,0,116.56,54.61,116.56,124.33V434.88z"/>
			</g>
		</g>
	</g>
	<g>
		<g>
			<path fill="#00CE7C" d="M599.52,179.12c-8.68-10.85-16.54-22.58-26.33-32.37c-9.78-9.79-21.49-17.64-32.17-26.2
				C549.58,55.38,534.4,11.99,499.06,0c-22.52,8.19-25.52,20.91-9.55,39.5c2.58,3,5.1,6.08,7.05,9.52
				c11.12,19.69,16.29,39.86,4.26,62.33c-66.95-4.02-114.16,26.69-144.63,86.24c-6.76-2.15-12.71-3.65-18.37-5.89
				c-57.99-22.95-115.94-45.99-173.89-69.05c-31.49-12.53-67.63-9.95-95.62,9.14c-31,21.14-50.8,50.56-62.87,85.67
				c-8.36,24.31-6.76,48.02,2.62,71.5c20,50.02,62.69,71.59,105.35,72.25c26.97,0.42,54.05-8.46,81.14-12.82
				c27.72-4.46,55.51-8,83.49-1.68c7.28,1.65,13.51,4.35,17.31,10.6c3,4.93,2.74,11.2,0.21,16.38c-3.27,6.71-6.84,14-10.35,21.33
				c-4.26,8.89-9.98,17.47-12.08,26.86c-1.48,6.61,0.17,15.47,3.75,21.28c4.83,7.85,13.94,8.24,22.4,4.4
				c8.48-3.86,16.81-8.06,25.22-12.09c7.41-3.55,14.83-7.08,21.7-10.36c7.01-3.34,15.6-2.05,20.8,3.72
				c3.92,4.35,5.78,9.65,7.05,15.71c7.05,33.49-0.6,66.09-4.64,99c-3.44,28.03-14.11,54.95-8.46,84.42
				c8.8,45.97,42.04,82.5,87.6,90.51c16.44,2.89,35.31,0.9,38.19,0.37c36.76-6.76,66.89-25.34,91.25-52.96
				c28.62-32.44,35.79-69.14,19.22-110.06c-22.62-55.87-44.68-111.97-66.86-168.02c-3-7.57-5.28-15.43-8.17-23.98
				c61.06-30.61,90.66-79.11,86.98-145.89c28.81-10.8,51.76-3.67,72.78,13.88c17.76,14.84,30.5,11.01,38.06-11.12
				C706.58,185.18,665.4,170.95,599.52,179.12z M289.19,495.19c-11.59,5.85-22.66,12.77-34.38,18.34
				c-19.62,9.32-31.5,7.55-43.82-5.4c-11.88-12.49-13.11-24.15-4.07-42.81c3.4-7.01,7.67-13.59,11.16-20.56
				c3.1-6.18,6.06-12.44,8.87-18.41c3.87-8.23,1.31-18.48-6.6-22.95c-6.36-3.6-13.87-3.85-21.14-3.74
				c-38.41,0.57-76.8,2.02-115.2,3.21c-1.48,0.05-2.94,0.84-6.71,1.99c-10.47,58.42,2.45,112.07,37.09,162.04
				c-9.15,16.2-17.74,31.4-25.88,45.81c-2.77,4.9-2.49,11.02,0.83,15.57c5.67,7.79,11.28,7.9,21.41,2.35
				c14.47-7.93,28.66-16.37,43.07-24.64c49.98,35.17,103.57,47.92,162.74,37.06c0.66-4.72,1.23-7.24,1.32-9.77
				c1.1-28.55,2.38-57.1,3.06-85.67c0.3-12.44,0.69-25.13-1.36-37.3C316.07,489.51,307.75,485.82,289.19,495.19z"/>
		</g>
	</g>
</g>
</svg>
