<?xml version="1.0" encoding="UTF-8"?>
<svg id="Capa_2" data-name="Capa 2" xmlns="http://www.w3.org/2000/svg" viewBox="0 0 196 196">
  <defs>
    <style>
      .cls-1 {
        fill: #7473c0;
      }
    </style>
  </defs>
  <g id="Capa_1-2" data-name="Capa 1">
    <path class="cls-1" d="M163.2,48.76c-2.36-2.95-4.5-6.15-7.17-8.81-2.66-2.66-5.85-4.8-8.76-7.13,2.33-17.74-1.8-29.55-11.42-32.82-6.13,2.23-6.95,5.69-2.6,10.75,.7,.82,1.39,1.65,1.92,2.59,3.03,5.36,4.43,10.85,1.16,16.97-18.23-1.09-31.08,7.26-39.37,23.48-1.84-.58-3.46-.99-5-1.6-15.79-6.25-31.56-12.52-47.34-18.8-8.57-3.41-18.41-2.71-26.03,2.49-8.44,5.75-13.83,13.76-17.11,23.32-2.27,6.62-1.84,13.07,.71,19.46,5.45,13.62,17.07,19.49,28.68,19.67,7.34,.11,14.71-2.3,22.09-3.49,7.55-1.22,15.11-2.18,22.73-.46,1.98,.45,3.68,1.18,4.71,2.89,.82,1.34,.74,3.05,.06,4.46-.89,1.83-1.86,3.81-2.82,5.81-1.16,2.42-2.72,4.76-3.29,7.31-.4,1.8,.05,4.21,1.02,5.79,1.32,2.14,3.8,2.24,6.1,1.2,2.31-1.05,4.58-2.19,6.86-3.29,2.02-.97,4.04-1.93,5.91-2.82s4.25-.56,5.66,1.01c1.07,1.18,1.57,2.63,1.92,4.28,1.92,9.12-.16,17.99-1.26,26.95-.94,7.63-3.84,14.96-2.3,22.98,2.4,12.51,11.44,22.46,23.85,24.64,4.48,.79,9.61,.24,10.4,.1,10.01-1.84,18.21-6.9,24.84-14.42,7.79-8.83,9.74-18.82,5.23-29.96-6.16-15.21-12.16-30.48-18.2-45.74-.82-2.06-1.44-4.2-2.22-6.53,16.62-8.33,24.68-21.53,23.68-39.71,7.84-2.94,14.09-1,19.81,3.78,4.83,4.04,8.3,3,10.36-3.03-3.65-9.67-14.86-13.54-32.8-11.32Zm-84.48,86.04c-3.16,1.59-6.17,3.48-9.36,4.99-5.34,2.54-8.57,2.06-11.93-1.47-3.23-3.4-3.57-6.57-1.11-11.65,.92-1.91,2.09-3.7,3.04-5.6,.84-1.68,1.65-3.39,2.41-5.01,1.05-2.24,.36-5.03-1.8-6.25-1.73-.98-3.78-1.05-5.75-1.02-10.46,.16-20.91,.55-31.36,.87-.4,.01-.8,.23-1.83,.54-2.85,15.9,.67,30.51,10.1,44.11-2.49,4.41-4.83,8.55-7.04,12.47-.75,1.33-.68,3,.22,4.24,1.54,2.12,3.07,2.15,5.83,.64,3.94-2.16,7.8-4.46,11.72-6.71,13.61,9.58,28.19,13.04,44.3,10.09,.18-1.29,.33-1.97,.36-2.66,.3-7.77,.65-15.54,.83-23.32,.08-3.39,.19-6.84-.37-10.15-.95-5.66-3.22-6.67-8.27-4.12Z"/>
  </g>
</svg>